<svg width="196" height="40" viewBox="0 0 196 40" fill="none" xmlns="http://www.w3.org/2000/svg">
<path d="M23.9297 14.4223H29.725L32.3636 9.16406H26.4934L23.9297 14.4223Z" fill="#FF0041"/>
<path d="M7.27814 24.1387V22.3107H26.4269L29.0654 17.0515H7.27814V15.2506C7.27814 14.7933 7.65147 14.4214 8.11036 14.4214H21.0252L23.588 9.16406H8.10939C4.74067 9.16406 2 11.8949 2 15.2516V24.1387C2 27.4953 4.74067 30.2262 8.10939 30.2262H29.7246L32.3632 24.9669H8.10939C7.6505 24.9669 7.27717 24.5949 7.27717 24.1387H7.27814Z" fill="white"/>
<path d="M115.249 20.885C115.228 20.8298 115.205 20.7746 115.184 20.7203C115.182 20.7145 115.179 20.7087 115.177 20.7029C114.975 20.205 114.703 19.7351 114.374 19.305C113.133 17.6388 111.144 16.5596 108.902 16.5596H94.5785C94.5785 16.5596 94.5756 16.5596 94.5736 16.5596C94.5717 16.5596 94.5707 16.5596 94.5688 16.5596C93.9106 16.5596 93.3768 16.0278 93.3768 15.372C93.3768 14.7162 93.9106 14.1843 94.5688 14.1843C94.5717 14.1843 94.5746 14.1843 94.5775 14.1843C94.5804 14.1843 94.5834 14.1843 94.5863 14.1843H110.918L113.404 9.08203H94.5279C90.9988 9.08203 88.1113 11.9592 88.1113 15.4756V15.5299C88.1113 18.9137 90.8646 21.6571 94.2606 21.6571L97.149 21.6765H108.109C109.045 21.6765 109.803 22.4321 109.803 23.365C109.803 24.2979 109.045 25.0535 108.109 25.0535H90.6264L88.1512 30.1315H108.902C112.664 30.1315 115.712 27.0936 115.712 23.3456C115.712 22.4776 115.547 21.6494 115.25 20.887L115.249 20.885Z" fill="white"/>
<path d="M68.4794 16.9688L65.8398 22.228H83.0188L85.6584 16.9688H68.4794Z" fill="white"/>
<path d="M151.634 14.3413H166.533L169.087 9.08203H151.634C148.263 9.08203 145.523 11.8119 145.523 15.1676V30.0085H150.755L150.798 22.0969H162.908L165.395 16.9946H151.195L150.803 16.9956V15.1686C150.803 14.7123 151.174 14.3422 151.635 14.3422L151.634 14.3413Z" fill="white"/>
<path fill-rule="evenodd" clip-rule="evenodd" d="M142.134 14.3261C142.092 13.0377 141.586 11.8587 140.773 10.9384C140.772 10.9375 140.771 10.9355 140.769 10.9346C140.713 10.8716 140.656 10.8086 140.597 10.7486C140.593 10.7447 140.588 10.7398 140.585 10.736C140.528 10.6778 140.471 10.6217 140.413 10.5664C140.405 10.5587 140.397 10.5519 140.389 10.5442C140.334 10.4918 140.277 10.4415 140.219 10.3921C140.207 10.3824 140.196 10.3727 140.183 10.362C140.129 10.3155 140.073 10.27 140.017 10.2264C140 10.2138 139.984 10.2012 139.966 10.1886C139.914 10.1479 139.86 10.1082 139.807 10.0704C139.784 10.0549 139.762 10.0394 139.74 10.0239C139.69 9.98907 139.64 9.95517 139.589 9.92223C139.561 9.90382 139.532 9.88639 139.503 9.86895C139.457 9.83989 139.411 9.81179 139.363 9.7837C139.328 9.76336 139.293 9.74495 139.258 9.72461C139.216 9.70136 139.174 9.67714 139.13 9.65486C139.088 9.63355 139.046 9.61321 139.004 9.59189C138.966 9.57349 138.929 9.55411 138.89 9.53668C138.84 9.51343 138.79 9.49211 138.74 9.4708C138.708 9.45724 138.676 9.44271 138.643 9.42915C138.585 9.4059 138.526 9.38362 138.467 9.36134C138.441 9.35165 138.416 9.34099 138.389 9.33227C138.322 9.30902 138.255 9.28674 138.187 9.26543C138.168 9.25962 138.148 9.25284 138.129 9.24703C138.054 9.22475 137.978 9.20343 137.901 9.18406C137.889 9.18115 137.875 9.17631 137.862 9.1734C137.777 9.15209 137.69 9.13272 137.604 9.11528C137.6 9.11528 137.595 9.11334 137.591 9.11237C137.224 9.03875 136.843 9 136.454 9H123.701C120.577 9 118.018 11.4761 118.018 14.5033V25.0092H118.022C118.065 26.2976 118.571 27.4775 119.384 28.3969C119.385 28.3978 119.385 28.3998 119.387 28.4007C119.444 28.4637 119.501 28.5267 119.56 28.5867C119.563 28.5906 119.568 28.5954 119.572 28.5993C119.629 28.6574 119.686 28.7136 119.744 28.7689C119.752 28.7766 119.76 28.7834 119.768 28.7911C119.823 28.8434 119.879 28.8938 119.938 28.9432C119.949 28.9529 119.961 28.9626 119.974 28.9733C120.028 29.0198 120.084 29.0653 120.14 29.1089C120.156 29.1215 120.173 29.1341 120.19 29.1467C120.243 29.1873 120.296 29.2271 120.35 29.2648C120.372 29.2803 120.395 29.2958 120.417 29.3113C120.467 29.3462 120.517 29.3801 120.568 29.4131C120.596 29.4315 120.625 29.4489 120.653 29.4663C120.7 29.4954 120.746 29.5235 120.793 29.5516C120.828 29.5719 120.863 29.5903 120.898 29.6107C120.941 29.6339 120.983 29.6581 121.027 29.6804C121.068 29.7017 121.111 29.7221 121.153 29.7434C121.191 29.7618 121.228 29.7812 121.267 29.7986C121.316 29.8219 121.367 29.8432 121.416 29.8645C121.449 29.878 121.481 29.8926 121.514 29.9061C121.572 29.9294 121.63 29.9517 121.69 29.9739C121.716 29.9836 121.741 29.9943 121.767 30.003C121.834 30.0263 121.902 30.0485 121.97 30.0699C121.989 30.0757 122.009 30.0824 122.028 30.0883C122.103 30.1105 122.179 30.1319 122.255 30.1512C122.268 30.1541 122.282 30.159 122.294 30.1619C122.38 30.1832 122.466 30.2026 122.553 30.22C122.557 30.22 122.562 30.2219 122.566 30.2229C122.933 30.2965 123.314 30.3353 123.703 30.3353H136.456C139.579 30.3353 142.139 27.8592 142.139 24.8319V14.3261H142.134ZM124.166 25.76C123.689 25.4374 123.374 24.893 123.374 24.2788V15.0604C123.374 14.0752 124.183 13.2702 125.171 13.2702H134.988C135.359 13.2702 135.704 13.3835 135.992 13.5772C136.468 13.8998 136.783 14.4443 136.783 15.0584V24.2769C136.783 25.2621 135.974 26.0671 134.987 26.0671H125.17C124.799 26.0671 124.454 25.9537 124.166 25.76Z" fill="white"/>
<path d="M186.108 9.12109H171.454L168.9 14.3803H178.065V30.314H178.139V30.3343H183.27V30.314H183.297L183.339 20.2382L183.343 14.3803H183.346H192.908L193.001 9.12109H186.108Z" fill="white"/>
<path d="M56.412 9.17969V22.832L41.6227 9.17969H36.5254V30.2059H41.6227V16.8946L56.412 30.2059H61.5084V9.17969H56.412Z" fill="white"/>
</svg>
